<svg width="906" height="276" viewBox="0 0 906 276" fill="none" xmlns="http://www.w3.org/2000/svg">
<path d="M794.012 175.358L779.283 146.039L874.292 66.7057L847.07 138.818L794.012 175.358Z" fill="#DD367E"/>
<path d="M794.012 175.358L779.283 146.039L874.292 66.7057L847.07 138.818L794.012 175.358Z" stroke="#DD367E"/>
<path d="M874.916 65.4368L794.489 150.372L841.294 176.17L874.916 65.4368Z" fill="#DF4A95" stroke="#DF4A95"/>
<path d="M781.025 146.503L734.49 138.571L875.39 65.2758L781.025 146.503Z" fill="#DF4A95" stroke="#DF4A95"/>
<path d="M790.758 185.276C777.425 203.776 734.258 245.076 668.258 262.276C585.758 283.776 521.758 260.276 485.258 250.276C448.758 240.276 424.758 204.276 351.758 201.776C278.758 199.276 288.044 243.901 234.758 262.276C191.258 277.276 69.2584 286.734 34.2584 232.776C-13.7416 158.776 53.8193 108.25 83.7584 106.276C129.258 103.276 158.258 130.776 146.258 165.276C133.911 200.776 63.7584 202.782 36.2584 174.276C22.5918 160.109 -1.24158 116.776 1.75842 85.7758C5.90287 42.9497 24.7584 19.2758 49.7584 8.77578C69.7584 0.375785 103.092 0.942451 117.258 2.27578" stroke="white" stroke-width="3" stroke-linecap="round" stroke-dasharray="11 11"/>
</svg>
