<svg width="83" height="77" viewBox="0 0 83 77" fill="none" xmlns="http://www.w3.org/2000/svg">
<g clip-path="url(#clip0_42_232)">
<path fill="#6F7D5F" d="M10.067 13.68C9.66699 13.213 9.33399 12.813 9.06699 12.413C8.59999 11.813 8.06699 11.346 7.19999 11.346C6.53299 11.279 5.79999 11.213 5.13299 10.946C4.46599 10.679 3.66599 10.613 2.93299 10.946C2.79999 11.013 2.66599 11.013 2.46599 11.013C1.59899 11.08 1.06599 11.546 0.932993 12.413L0.265993 16.813C0.132993 18.346 0.0659929 19.88 0.0659929 21.413C0.0659929 22.813 -0.00100708 24.28 -0.00100708 25.68C-0.00100708 27.08 0.0659929 28.48 0.198993 29.88C0.331993 31.747 0.598993 33.68 0.731993 35.547C0.798993 36.414 0.798993 37.28 0.931993 38.08C1.33199 40.947 1.73199 43.747 2.26499 46.613C2.79799 49.48 3.39799 52.28 4.06499 55.146C4.73199 57.879 5.93199 60.413 7.26499 62.879C7.66499 63.679 8.33199 64.412 8.93199 65.012C9.73199 65.745 10.465 66.479 11.532 66.812C11.732 66.879 11.932 67.012 12.065 67.212C12.398 67.545 12.732 67.745 13.265 67.545C13.398 67.478 13.532 67.545 13.665 67.545C14.265 67.612 14.865 67.745 15.532 67.678C16.599 67.611 17.665 67.611 18.599 67.078C19.066 66.811 19.599 66.611 20.066 66.478C20.666 66.278 21.266 66.145 21.799 65.878C23.199 65.211 24.532 64.545 25.799 63.545C26.199 63.212 26.732 62.945 27.132 62.612L29.665 60.212C29.998 59.879 30.198 59.412 30.465 59.079L30.798 58.612C31.331 57.945 31.798 57.212 31.998 56.345C32.065 56.012 32.198 55.745 32.331 55.412L32.931 53.879C33.331 52.546 33.731 51.146 34.198 49.812C34.598 48.612 34.798 47.412 34.731 46.145C34.664 45.212 34.731 44.345 34.398 43.412C34.331 43.279 34.398 43.079 34.398 42.879V41.679C34.331 40.812 33.998 40.012 33.465 39.346C33.198 39.013 32.998 38.679 32.798 38.346C32.265 37.346 31.598 36.413 30.598 35.813L29.198 34.88C28.731 34.547 28.265 34.413 27.731 34.413H24.998C24.798 34.413 24.665 34.346 24.331 34.28C24.798 33.68 25.064 33.147 25.464 32.613C25.997 31.813 26.864 31.28 27.331 30.346C27.598 29.813 28.064 29.279 28.331 28.746C28.664 28.213 28.864 27.679 29.064 27.146C29.397 26.213 29.864 25.279 29.931 24.346C30.064 23.413 30.264 22.479 30.464 21.546C30.531 21.146 30.731 20.679 30.797 20.213C31.064 19.08 31.464 17.88 31.33 16.613C31.33 16.146 31.263 15.613 31.197 15.08C31.13 13.88 31.13 12.747 30.797 11.68C30.397 10.547 30.197 9.41301 28.997 8.88001C28.864 8.81301 28.797 8.74701 28.73 8.61301C27.797 7.74601 26.73 7.08001 25.397 6.81301C24.597 6.68001 23.864 6.48001 23.064 6.21301C22.531 5.94601 21.931 5.88001 21.397 5.94601C19.064 6.27901 16.997 7.21301 14.997 8.34601C13.464 9.27901 12.397 10.613 11.33 12.013C10.93 12.48 10.53 13.013 10.063 13.68H10.067ZM13.267 38.547C13.134 37.68 13 36.947 12.934 36.214L12.334 28.614C12.334 27.547 12.267 26.547 12.067 25.547C11.934 24.747 11.934 23.814 12.134 22.947C12.667 19.947 14.001 17.347 15.801 15.014C16.534 14.014 17.334 13.014 18.134 12.081C18.601 11.481 19.334 11.214 20.067 11.348C20.267 11.348 20.4 11.481 20.6 11.615L22.067 12.948C22.334 13.215 22.534 13.548 22.6 14.015C22.667 14.682 22.867 15.348 23 16.015C23.2 17.282 23.133 18.615 22.933 19.882C22.733 22.015 22.4 24.149 21.866 26.215C21.399 27.948 20.799 29.615 19.866 31.148C19.666 31.415 19.533 31.748 19.333 32.081C19 32.814 18.466 33.281 17.933 33.881C17.066 34.814 16.333 35.881 15.466 36.814C14.999 37.347 14.466 37.747 13.933 38.214C13.8 38.347 13.6 38.414 13.266 38.547H13.267ZM19.2 60.68C18.8 60.28 18.6 59.947 18.533 59.547C18.533 59.28 18.466 59.014 18.333 58.814C17.666 57.814 17.266 56.681 16.933 55.481C16.8 55.014 16.466 54.548 16.333 54.014L16 52.747L15.2 50.414C15 49.881 14.867 49.281 14.8 48.681C14.6 47.681 14.533 46.748 14.4 45.748C14.267 45.215 14.2 44.681 14.133 44.148C14.066 43.748 14.066 43.415 14.4 43.081C14.667 42.948 14.8 42.681 15 42.414C15.467 41.814 16.067 41.281 16.733 40.814C17.733 40.214 18.733 39.547 19.666 38.814C20.266 38.347 21.066 38.147 21.799 37.947C22.066 37.88 22.332 38.014 22.532 38.214C23.199 38.881 23.799 39.414 24.465 40.014C25.132 40.681 25.398 41.481 25.465 42.414C25.532 43.747 25.265 45.081 25.132 46.414C25.065 47.014 24.932 47.547 24.932 48.081C24.865 49.148 24.532 50.014 24.199 51.014C23.599 52.881 22.732 54.681 21.932 56.414C21.399 57.547 20.732 58.614 20.065 59.681C19.865 60.014 19.532 60.348 19.198 60.681L19.2 60.68Z"/>
<path fill="#6F7D5F" d="M37.267 10.613C37.134 9.87999 36.867 9.61299 36.134 9.47999C35.801 9.41299 35.401 9.41299 35.067 9.41299C34.867 9.41299 34.734 9.47999 34.6 9.54599C33.333 10.413 32.467 11.546 32 12.879C31.733 13.612 31.8 14.346 32.133 15.079C32.266 15.346 32.333 15.679 32.4 16.012C32.533 16.679 33 17.145 33.667 17.212C33.934 17.279 34.2 17.279 34.4 17.412C35.533 18.012 36.733 18.212 38 18.145C39 18.078 40 17.945 41.067 17.812C41.667 17.745 41.8 17.879 41.667 18.412C41.334 20.079 41 21.812 40.6 23.545C40.267 24.945 40 26.412 39.867 27.878C39.8 28.611 39.6 29.411 39.534 30.211C39.401 30.811 39.334 31.411 39.334 32.011C39.334 33.478 39.401 34.944 39.401 36.478C39.468 37.278 39.401 38.145 39.334 38.945C39.267 39.945 39.401 40.812 39.467 41.745C39.534 43.412 39.467 45.012 39.467 46.678V53.478L39.267 59.211C39.267 59.944 39.2 60.011 38.467 60.211C37.4 60.478 36.267 60.611 35.534 61.611C35.401 61.744 35.201 61.811 35.001 61.944C34.601 62.077 34.268 62.144 33.934 62.344C33.467 62.611 33.067 62.877 32.667 63.211C32.267 63.544 31.934 64.011 31.467 64.344C30.534 65.211 29.8 66.211 29.2 67.277C29.133 67.477 29.067 67.677 29.067 67.877C29 68.677 29.067 69.544 29 70.41C29 71.41 29.133 72.277 29.8 73.077C30.133 73.477 30.333 74.01 30.6 74.41C31 75.077 31.533 75.543 32.267 75.743C33.4 75.943 34.467 76.076 35.534 75.676C35.801 75.609 36.067 75.543 36.334 75.543C37.534 75.476 38.667 75.21 39.734 74.81C41.401 74.143 43.001 73.477 44.267 72.21C44.867 71.61 45.534 71.143 45.934 70.41C46.067 70.21 46.334 70.143 46.467 69.943C46.734 69.61 47.067 69.61 47.4 69.743L48.8 70.343L52.333 72.01L60.733 75.343C61.4 75.61 62.133 75.81 62.8 75.943C64.133 76.143 65.4 76.276 66.667 76.343C67.667 76.41 68.6 76.343 69.6 76.343L72.8 76.076C73.133 76.076 73.533 75.943 73.867 75.943C74.2 75.876 74.534 75.876 74.867 75.743C75.4 75.61 76 75.476 76.534 75.276C76.667 75.209 76.734 75.143 76.801 75.009C77.001 74.476 77.401 74.342 77.868 74.076C78.735 73.676 79.535 73.209 80.401 72.743L80.868 72.543L81.868 71.943V71.743C81.735 70.943 81.801 70.943 82.535 70.676C82.602 70.676 82.735 70.609 82.868 70.476L82.268 69.143H82.068C81.268 69.276 80.468 69.343 79.668 69.343C79.001 69.343 78.268 69.276 77.535 69.143C77.402 69.143 77.268 69.21 77.202 69.21C76.669 69.21 76.202 69.277 75.735 69.277C75.202 69.277 74.668 69.21 74.068 69.144C72.735 69.011 71.401 68.944 70.068 68.744C67.801 68.344 65.601 67.744 63.401 67.011C60.934 66.211 58.468 65.411 56.068 64.411C55.535 64.211 55.068 63.944 54.601 63.678C54.001 63.345 53.468 63.011 52.868 62.745L51.135 61.745C50.602 61.478 50.335 61.012 50.468 60.412C50.735 59.412 50.735 58.279 51.268 57.279C51.335 57.212 51.335 57.146 51.335 57.012C51.335 55.879 51.268 54.679 51.268 53.545C51.201 52.478 51.068 51.412 51.135 50.345C51.135 49.545 51.202 48.745 51.202 47.945C51.202 47.145 51.135 46.278 51.069 45.478L50.736 42.411C50.669 41.144 50.603 39.944 50.603 38.744C50.536 37.344 50.536 36.011 50.403 34.677C50.336 33.544 50.07 32.41 49.87 31.277C49.803 30.41 49.537 29.544 49.67 28.677C49.87 27.144 49.603 25.677 49.203 24.277C48.736 22.477 48.27 20.744 48.403 18.877C48.403 18.344 48.136 17.744 48.07 17.21C48.07 16.677 48.003 16.077 48.203 15.61C48.336 15.277 48.87 15.077 49.203 14.877C49.203 14.81 49.27 14.81 49.27 14.81C50.137 14.277 51.003 13.81 51.803 13.21C53.336 12.143 54.67 10.877 55.803 9.47699C56.536 8.60999 57.136 7.80999 57.27 6.67699C57.403 5.87699 58.003 5.14399 57.403 4.27699V4.14399C57.47 3.61099 57.27 3.07699 57.07 2.61099L56.403 1.41099C56.27 1.01099 56.003 0.743993 55.536 0.610993C55.403 0.543993 55.203 0.477993 55.069 0.343993C54.402 -0.0560073 53.669 -0.0560073 52.936 0.0769927C51.803 0.409993 50.736 1.00999 49.869 1.80999C48.736 2.94299 47.536 4.07699 46.736 5.54299C46.336 6.20999 45.803 6.80999 45.469 7.54299C45.002 8.54299 44.669 9.67599 44.136 10.676C43.536 11.743 43.203 12.876 42.803 14.076C42.67 14.676 42.336 14.943 41.736 15.076C40.603 15.409 39.403 15.476 38.203 15.609C37.07 15.809 36.27 15.209 35.603 14.409C35.203 13.942 35.136 13.342 35.203 12.742C35.27 12.209 35.67 11.942 36.136 11.675C36.269 11.675 36.403 11.542 36.536 11.408L37.269 10.608L37.267 10.613ZM38.934 66.88L38.734 67.413C38.401 68.213 38.134 69.013 37.867 69.88C37.6 70.48 37.4 71.147 37.067 71.747C36.467 72.747 35.134 73.547 33.867 73.214C32.867 72.947 32.267 72.014 32.267 71.147C32.2 70.147 32.267 69.08 32.467 68.08C32.534 67.413 33.067 67.013 33.667 66.747C34.467 66.414 35.334 66.214 36.2 66.214C37.067 66.214 37.867 66.414 38.733 66.681L38.933 66.881L38.934 66.88ZM48.267 12.413C48.067 11.68 48.067 11.013 48.2 10.413C48.533 8.67999 49.2 7.01299 49.933 5.41299C50.2 4.87999 50.666 4.41299 51.066 4.01299C51.733 3.41299 52.399 2.87999 53.266 2.47999C53.866 2.21299 54.466 2.54699 54.599 3.21299C54.666 3.47999 54.666 3.74599 54.599 4.01299C54.132 6.07999 53.399 8.01299 51.799 9.54599C50.799 10.479 49.799 11.413 48.666 12.146L48.267 12.413Z"/>
<path fill="#6F7D5F" d="M61.933 60.546C62.266 60.279 62.466 60.013 62.8 59.879C63.067 59.746 63.2 59.546 63.333 59.279C63.6 58.946 63.666 58.479 64.066 58.146C64.333 57.879 64.466 57.413 64.533 56.946C64.666 56.013 64.733 55.013 64.6 54.079C64.467 53.212 64.267 52.346 63.867 51.546L62.667 49.813C62.6 49.68 62.467 49.613 62.334 49.48C60.934 48.613 59.467 48.08 57.801 48.147C56.601 48.214 55.534 48.68 54.668 49.68C53.935 50.613 53.268 51.68 52.735 52.747C52.002 54.28 51.602 55.88 51.602 57.48C51.602 58.547 51.802 59.613 52.069 60.68L52.736 62.68C53.003 63.947 53.536 65.147 54.536 66.013C54.736 66.146 54.936 66.346 55.069 66.546C56.069 67.946 57.402 68.946 58.802 69.879C59.002 70.012 59.269 70.146 59.469 70.079C59.802 69.946 60.069 70.079 60.402 70.212C61.402 70.545 62.402 70.679 63.402 70.679H63.802C64.869 70.812 65.935 70.946 67.002 70.679C67.135 70.679 67.335 70.679 67.535 70.746C68.068 70.813 68.535 70.746 69.068 70.613C69.735 70.413 70.468 70.213 71.201 70.28C71.401 70.28 71.601 70.213 71.801 70.147L73.134 69.68C74.534 69.147 75.734 68.28 76.801 67.213C77.334 66.613 77.734 65.88 78.268 65.28C79.068 64.347 79.668 63.347 79.935 62.147C80.268 60.88 80.668 59.68 80.868 58.414C81.135 56.214 80.868 54.081 80.401 51.947C80.001 49.88 79.401 47.814 78.801 45.747C78.534 44.814 78.134 44.014 77.801 43.147L76.201 39.014C76.001 38.481 75.734 37.947 75.468 37.481L73.401 33.748L71.001 28.948C70.268 27.481 69.334 26.148 68.801 24.548C68.534 23.615 68.068 22.681 67.934 21.681C67.801 20.681 67.601 19.614 67.134 18.748C66.867 18.348 66.801 17.948 66.867 17.548C66.867 17.281 66.8 17.081 66.867 16.815C67.067 16.148 66.934 15.348 67.267 14.682C67.734 13.682 68.334 12.815 69.267 12.149C69.534 11.949 69.8 11.816 70.134 11.816C71.267 11.883 72.334 11.683 73.467 11.883C74.4 12.083 75.2 12.35 75.667 13.283C75.867 13.55 76 13.883 76.2 14.216C76.867 15.416 77.067 16.749 77.067 18.083C77.134 18.55 77.134 19.016 77.067 19.416C76.934 20.083 76.734 20.683 76.534 21.283C76.467 21.483 76.334 21.683 76.134 21.75L75.134 22.35C74.667 22.55 74.601 22.55 74.334 22.083C74.134 21.75 73.867 21.416 73.601 21.15C73.401 20.883 73.068 20.683 72.668 20.817C72.001 21.084 71.468 21.484 71.335 22.217C71.268 22.484 71.202 22.75 71.335 23.017C71.468 23.35 71.668 23.75 71.935 24.084C72.268 24.617 72.735 25.017 73.402 25.084C73.735 25.151 74.135 25.217 74.469 25.351C74.869 25.484 75.269 25.484 75.669 25.151C75.669 25.084 75.869 25.018 75.936 25.018C76.403 25.085 76.669 24.818 77.003 24.551L78.336 23.351C78.936 22.884 79.336 22.284 79.603 21.618C80.403 19.618 80.67 17.618 80.336 15.485C80.269 15.085 80.336 14.685 80.203 14.352C79.87 12.952 79.203 11.819 78.203 10.885C76.403 9.08499 74.27 8.01799 71.67 7.95199C71.47 7.95199 71.27 7.81899 71.07 7.81899C70.603 7.81899 70.137 7.68599 69.737 7.75199C69.137 7.88499 68.604 8.08499 68.07 8.21899L66.203 8.95199C64.87 9.61899 63.736 10.685 62.67 11.685C62.07 12.218 61.537 12.752 61.07 13.418C60.403 14.551 59.67 15.685 59.137 16.885C58.337 18.618 57.87 20.418 57.737 22.285C57.67 23.018 57.604 23.818 57.604 24.552C57.604 25.285 57.671 26.019 57.737 26.752C57.937 28.419 58.27 30.152 58.67 31.819C58.937 33.152 59.203 34.486 59.803 35.686C60.47 37.086 61.07 38.486 61.67 39.886C62.003 40.686 62.337 41.486 62.737 42.286C63.67 44.219 64.737 46.153 65.604 48.153C66.937 51.02 68.337 53.953 69.271 57.02C69.338 57.353 69.471 57.687 69.604 58.02C70.337 59.287 70.471 60.687 70.337 62.087C70.204 63.287 69.67 64.42 69.004 65.354C68.604 65.954 67.937 66.421 67.337 66.821C66.27 67.421 65.137 67.754 63.804 67.621C62.937 67.554 62.204 67.354 61.471 66.821C60.738 66.288 59.871 65.888 59.071 65.354C58.871 65.221 58.738 64.954 58.604 64.754C58.404 64.487 58.337 64.154 58.137 63.887C57.337 62.754 56.67 61.62 56.404 60.22C56.337 59.82 56.337 59.42 56.204 59.02C56.071 58.087 56.204 57.287 56.337 56.42L56.804 53.553C56.937 52.353 56.937 52.286 58.137 51.82C58.137 51.82 58.137 51.753 58.204 51.753C58.604 51.62 58.804 51.686 58.937 52.086C59.27 53.019 59.47 54.019 59.404 55.019C59.404 55.886 59.271 56.752 59.404 57.619C59.537 58.486 59.471 59.419 60.604 59.752L60.804 60.019C60.937 60.086 61.071 60.152 61.137 60.152C61.537 60.019 61.67 60.285 61.937 60.552L61.933 60.546Z"/>
</g>
<defs>
<clipPath id="clip0_42_232">
<rect width="83" height="77"/>
</clipPath>
</defs>
</svg>
