<svg width="500" height="500" viewBox="0 0 500 500" fill="none" xmlns="http://www.w3.org/2000/svg">
<path fill-rule="evenodd" clip-rule="evenodd" d="M138.537 318.223C132.332 315.126 126.59 310.475 121.045 306.293C118.761 304.57 116.312 303.127 114.274 301.092C114.05 300.868 111.936 299.123 112.387 298.883C113.619 298.229 120.114 301.326 121.444 301.73C130.585 304.505 139.352 307.166 148.133 310.983C145.801 313.686 140.787 313.231 138.851 316.783C138.764 316.979 138.709 317.204 138.671 317.424C138.618 317.621 138.589 317.821 138.569 317.983C138.56 318.064 138.61 318.259 138.537 318.223Z" fill="black"/>
<path d="M138.149 319C131.859 315.855 125.939 311.307 120.408 307.137L121.681 305.449C127.242 309.643 132.805 314.398 138.925 317.446L138.149 319Z" fill="black"/>
<path d="M120.408 307.137C118.173 305.449 115.665 303.962 113.527 301.84L115.021 300.344C116.96 302.292 119.348 303.692 121.681 305.449L120.408 307.137Z" fill="black"/>
<path d="M113.527 301.84C113.369 301.677 111.13 299.798 111.894 297.954L112.881 299.812C112.743 298.447 114.731 300.06 115.021 300.344L113.527 301.84Z" fill="black"/>
<path d="M111.894 297.954C113.936 297.225 120.55 300.352 121.754 300.708L121.134 302.751C119.678 302.3 113.302 299.232 112.881 299.812L111.894 297.954Z" fill="black"/>
<path d="M121.754 300.708C130.895 303.483 139.729 306.142 148.568 309.983L147.698 311.984C138.974 308.189 130.275 305.526 121.134 302.751L121.754 300.708Z" fill="black"/>
<path d="M148.959 311.696C146.12 314.729 140.954 313.608 139.213 316.98L138.489 316.585C140.619 312.855 145.482 312.643 147.307 310.271L148.959 311.696Z" fill="black"/>
<path d="M148.959 311.696L147.307 310.271" stroke="black" stroke-linejoin="round"/>
<path d="M139.228 316.949L138.474 316.616" stroke="black" stroke-linejoin="round"/>
<path d="M139.267 317.585C139.222 317.747 139.375 317.926 139.357 318.078L137.782 317.889C137.803 317.716 138.014 317.496 138.076 317.262L139.267 317.585Z" fill="black"/>
<path d="M139.357 318.078C139.345 317.949 139.47 318.38 138.149 319L138.925 317.446C137.749 318.139 137.775 318.178 137.782 317.889L139.357 318.078Z" fill="black"/>
<path fill-rule="evenodd" clip-rule="evenodd" d="M111.934 299.331C114.103 295.009 115.41 290.091 117.032 285.551C117.625 283.892 118.271 280.229 119.538 278.941C121.575 276.871 126.287 281.67 126.807 283.216C128.919 289.496 122.443 294.52 117.454 296.525C116.379 296.957 115.034 298.174 113.861 298.174C113.326 298.495 112.791 298.817 112.255 299.138C112.148 299.203 111.878 299.442 111.934 299.331Z" fill="black"/>
<path d="M111.045 298.885C113.172 294.659 114.353 289.764 115.99 285.179L118.075 285.924C116.468 290.419 115.034 295.36 112.823 299.777L111.045 298.885Z" fill="black"/>
<path d="M115.99 285.179C116.547 283.641 117.295 279.852 118.792 278.207L120.284 279.675C119.247 280.606 118.704 284.143 118.075 285.924L115.99 285.179Z" fill="black"/>
<path d="M115.99 285.179L118.075 285.924" stroke="black" stroke-linejoin="round"/>
<path d="M118.792 278.207C121.967 275.9 127.112 280.989 127.82 282.875L125.794 283.557C125.462 282.35 121.182 277.841 120.284 279.675L118.792 278.207Z" fill="black"/>
<path d="M127.82 282.875C129.916 289.882 122.96 295.363 117.823 297.442L117.085 295.608C121.927 293.677 127.921 289.111 125.794 283.557L127.82 282.875Z" fill="black"/>
<path d="M117.823 297.442C116.935 297.774 115.129 298.371 113.861 298.393V297.955C114.938 297.976 115.822 296.14 117.085 295.608L117.823 297.442Z" fill="black"/>
<path d="M117.823 297.442L117.085 295.608" stroke="black" stroke-linejoin="round"/>
<path d="M112.7 299.881C112.691 299.877 112.388 300.296 111.045 298.885L112.823 299.777C111.367 298.589 111.606 298.529 111.81 298.396L112.7 299.881Z" fill="black"/>
<path fill-rule="evenodd" clip-rule="evenodd" d="M102.873 339.429C82.973 339.423 63.058 335.31 43.286 333.266C36.757 332.591 30.366 330.378 23.77 330.369C23.745 330.655 27.142 331.97 27.667 332.189C31.711 333.875 39.209 336.222 45.443 338.164C59.367 342.502 72.179 345.125 85.17 349.149C89.826 350.592 97.115 352.956 102.352 354.471L102.567 354.381C102.315 350.794 99.984 343.29 101.961 340.312C102.148 340.077 102.377 339.863 102.567 339.699C102.67 339.61 103.009 339.429 102.873 339.429Z" fill="black"/>
<path d="M24.865 330.464C24.216 329.662 27.545 330.941 28.093 331.169L27.242 333.21C26.74 333 23.273 331.649 22.674 330.274L24.865 330.464Z" fill="black"/>
<path d="M28.093 331.169C32.076 332.832 39.54 335.164 45.772 337.106L45.113 339.223C38.879 337.281 31.346 334.919 27.242 333.21L28.093 331.169Z" fill="black"/>
<path d="M45.772 337.106C59.646 341.429 72.457 344.048 85.499 348.087L84.841 350.211C71.902 346.201 59.087 343.575 45.113 339.223L45.772 337.106Z" fill="black"/>
<path d="M85.499 348.087C90.164 349.533 97.445 351.891 102.662 353.401L102.042 355.542C96.785 354.02 89.489 351.651 84.841 350.211L85.499 348.087Z" fill="black"/>
<path d="M102.352 353.357C101.92 353.444 102.134 353.352 102.567 353.265V355.497C103 355.41 102.785 355.499 102.352 355.586V353.357Z" fill="black"/>
<path d="M102.352 353.357V355.586" stroke="black" stroke-linejoin="round"/>
<path d="M101.454 354.46C101.228 351.047 99.527 343.306 101.58 340.06L102.341 340.565C100.44 343.275 103.402 350.54 103.68 354.303L101.454 354.46Z" fill="black"/>
<path d="M101.454 354.46L103.68 354.303" stroke="black" stroke-linejoin="round"/>
<path d="M102.104 339.161C102.3 339.005 102.456 338.81 102.873 340.259L102.874 338.599C103.562 340.048 103.04 340.216 103.03 340.237L102.104 339.161Z" fill="black"/>
<path d="M102.104 339.161L103.03 340.237" stroke="black" stroke-linejoin="round"/>
<path fill-rule="evenodd" clip-rule="evenodd" d="M23.062 330.947C21.327 327.469 18.918 323.967 17.766 320.22C16.867 317.294 15.174 314.578 14.109 311.7C13.294 309.502 11.137 306.61 11.024 304.274C11 303.789 12.707 303.246 13.124 303.105C15.748 302.222 18.752 301.958 21.297 303.156C28.143 306.377 31.435 318.619 28.009 325.118C27.214 326.626 26.372 330.6 24.635 331.106C24.407 331.144 24.162 331.126 23.931 331.088C23.701 331.078 23.492 331.038 23.322 331C23.235 330.981 23.102 331.026 23.062 330.947Z" fill="black"/>
<path fill-rule="evenodd" clip-rule="evenodd" d="M240.45 191.666C240.451 191.67 246.094 222.003 248.626 236.224C254.592 269.725 263.876 308.434 278.769 338.991C286.169 354.174 296.373 367.965 302.709 383.581C304.754 388.621 308.382 395.353 306.479 400.889C299.248 421.932 256.758 411.249 240.91 411.238C221.185 411.225 203.663 423.576 183.261 421.712C158.623 419.46 148.032 396.908 130.305 382.597C121.736 375.678 109.897 370.196 104.323 360.23C102.47 356.917 102.325 352.525 102.058 348.853C99.984 320.308 125.828 329.031 138.386 318.123C144.455 312.852 153.024 306.674 161.672 306.096C163.865 305.949 167.734 309.207 167.734 309.207C167.738 309.201 200.776 273.872 208.36 255.025C224.572 214.733 212.255 189.775 209.635 187.53C202.551 181.462 240.447 191.665 240.45 191.666Z" fill="#F5F5F5"/>
<path d="M242.358 200.753C247.436 225.471 250.608 242.15 255.522 261.619L253.372 262.162C248.438 242.61 246.071 225.73 240.996 201.032L242.358 200.753Z" fill="#B93A25"/>
<path d="M255.522 261.619C263.546 293.421 268.339 322.098 288.146 355.203L285.815 356.596C265.813 323.094 261.375 293.873 253.372 262.162L255.522 261.619Z" fill="#B93A25"/>
<path d="M255.522 261.619L253.372 262.162" stroke="#B93A25" stroke-linejoin="round"/>
<path d="M288.146 355.203C293.492 364.148 314.715 398.77 305.186 406.547L303.645 404.34C312.135 399.538 291.175 365.565 285.815 356.596L288.146 355.203Z" fill="#B93A25"/>
<path d="M288.146 355.203L285.815 356.596" stroke="#B93A25" stroke-linejoin="round"/>
<path d="M305.186 406.547C285.244 420.287 263.567 412.803 242.91 414.314L242.637 410.452C264.161 408.977 284.885 417.619 303.645 404.34L305.186 406.547Z" fill="#B93A25"/>
<path d="M305.186 406.547L303.645 404.34" stroke="#B93A25" stroke-linejoin="round"/>
<path d="M242.91 414.314C221.087 415.822 184.295 430.639 161.72 418.743L163.866 414.794C184.077 426.15 220.066 412.086 242.637 410.452L242.91 414.314Z" fill="#B93A25"/>
<path d="M242.91 414.314L242.637 410.452" stroke="#B93A25" stroke-linejoin="round"/>
<path d="M161.72 418.743C150.515 412.433 143.304 394.716 134.035 386.968L136.674 383.855C146.709 392.467 154.081 409.697 163.866 414.794L161.72 418.743Z" fill="#B93A25"/>
<path d="M161.72 418.743L163.866 414.794" stroke="#B93A25" stroke-linejoin="round"/>
<path d="M134.035 386.968C120.86 375.758 104.619 369.087 100.962 348.513L103.537 348.074C106.695 367.502 122.898 372.222 136.674 383.855L134.035 386.968Z" fill="#B93A25"/>
<path d="M134.035 386.968L136.674 383.855" stroke="#B93A25" stroke-linejoin="round"/>
<path d="M100.962 348.513C96.779 320.793 122.593 325.81 137.052 317.506L138.358 319.819C122.795 328.459 98.658 322.608 103.537 348.074L100.962 348.513Z" fill="#B93A25"/>
<path d="M100.962 348.513L103.537 348.074" stroke="#B93A25" stroke-linejoin="round"/>
<path d="M137.052 317.506C142.162 314.701 156.042 298.031 166.632 309.188L166.31 309.489C156.156 298.456 144.136 316.479 138.358 319.819L137.052 317.506Z" fill="#B93A25"/>
<path d="M137.052 317.506L138.358 319.819" stroke="#B93A25" stroke-linejoin="round"/>
<path d="M209.923 187.772C218.743 196.808 216.817 218.803 215.327 229.863L212.694 229.508C214.179 218.495 216.926 197.182 208.611 189.084L209.923 187.772Z" fill="#B93A25"/>
<path d="M215.327 229.863C209.712 271.03 181.811 299.775 149.894 323.306L148.281 321.117C180.025 297.724 207.317 269.882 212.694 229.508L215.327 229.863Z" fill="#B93A25"/>
<path d="M215.327 229.863L212.694 229.508" stroke="#B93A25" stroke-linejoin="round"/>
<path d="M149.894 323.306C144.532 327.257 138.124 331.179 131.58 333.199L130.82 330.721C137.034 328.828 143.008 325.005 148.281 321.117L149.894 323.306Z" fill="#B93A25"/>
<path d="M149.894 323.306L148.281 321.117" stroke="#B93A25" stroke-linejoin="round"/>
<path d="M131.58 333.199C129.198 333.927 122.734 334.156 121.288 335.622L121.073 335.407C122.629 333.872 128.591 331.408 130.82 330.721L131.58 333.199Z" fill="#B93A25"/>
<path d="M131.58 333.199L130.82 330.721" stroke="#B93A25" stroke-linejoin="round"/>
<path fill-rule="evenodd" clip-rule="evenodd" d="M197.646 430.498C197.5 430.392 195.958 426.383 195.879 425.905C195.847 425.704 195.743 424.288 196.232 424.492C197.104 424.9 197.916 427.873 197.998 428.731C198.044 429.15 198.062 429.732 197.998 430.145C197.976 430.26 197.895 430.646 197.646 430.498ZM180.94 399.735C180.624 399.684 180.288 399.673 179.98 399.761C184.181 400.261 187.518 401.691 188.932 404.888C189.331 405.791 189.525 411.056 190.226 409.653C192.481 404.679 196.211 401.438 201.886 402.587C207.408 404.999 207.463 410.295 205.772 415.306C204.003 419.042 209.448 419.062 210.6 422.649C212.072 427.232 209.109 437.927 202.612 436.847C200.478 436.492 200.055 434.529 198.352 433.677C197.148 436.658 197.395 439.498 194.677 441.888C187.996 447.76 181.235 438.777 180.334 432.617C179.354 432.866 178.667 433.439 177.861 434.031C169.478 438.074 164.381 426.115 167.675 419.515C169.573 415.71 173.894 417.514 172.562 412.48C171.307 407.116 174.68 401.278 179.98 399.761L180.94 399.735Z" fill="#F5F5F5"/>
<path fill-rule="evenodd" clip-rule="evenodd" d="M108.657 360.938C108.161 360.928 107.651 361.043 107.201 361.252C104.243 362.625 101.296 370.308 100.135 367.964C98.674 365.038 95.426 360.604 91.504 362.792C87.125 365.235 89.259 369.078 88.017 372.589C87.396 374.344 84.969 375.444 84.28 377.68C81.776 385.805 88.722 390.3 95.543 390.928C96.094 394.14 93.097 396.925 95.896 400.114C98.104 402.632 102.836 402.828 105.435 400.821C106.279 400.169 106.86 398.282 107.908 397.994C110.115 397.388 113.039 399.925 115.677 399.364C123.515 397.697 121.033 389.628 116.741 385.982C116.629 385.864 115.839 385.097 116.034 384.922C126.128 388.658 128.873 373.968 120.98 370.084C119.702 369.782 118.722 369.75 117.447 370.084C116.739 370.358 116.076 370.649 115.327 370.79C115.368 369.246 115.387 368.448 115.327 367.611C114.818 363.747 112.733 361.024 108.657 360.938ZM115.327 370.79C115.079 370.704 115.201 370.255 115.327 370.084V370.79ZM116.034 384.922C116.084 384.845 116.344 384.927 116.387 384.922H116.034Z" fill="#F5F5F5"/>
<path d="M98.126 384.226C91.282 381.875 84.157 371.889 88.483 364.521L90.315 365.673C86.297 371.568 92.366 380.657 98.641 382.679L98.126 384.226Z" fill="black"/>
<path d="M88.483 364.521C93.885 357.084 100.575 365.734 101.827 370.648L99.718 371.17C98.67 366.781 93.641 359.234 90.315 365.673L88.483 364.521Z" fill="black"/>
<path d="M88.483 364.521L90.315 365.673" stroke="black" stroke-linejoin="round"/>
<path d="M101.827 370.648C102.378 372.885 102.588 375.035 102.592 377.302L100.416 377.305C100.414 375.136 100.237 373.258 99.718 371.17L101.827 370.648Z" fill="black"/>
<path d="M101.827 370.648L99.718 371.17" stroke="black" stroke-linejoin="round"/>
<path d="M100.416 377.302C100.43 374.509 99.691 371.445 100.604 368.262L102.677 368.883C101.854 371.494 102.589 374.238 102.592 377.305L100.416 377.302Z" fill="black"/>
<path d="M100.416 377.302L102.592 377.305" stroke="black" stroke-linejoin="round"/>
<path d="M100.604 368.262C106.322 351.424 123.715 365.81 111.25 376.939L109.93 375.365C121.692 366.164 106.586 353.572 102.677 368.883L100.604 368.262Z" fill="black"/>
<path d="M100.604 368.262L102.677 368.883" stroke="black" stroke-linejoin="round"/>
<path d="M109.74 375.576C110.706 374.157 112.275 372.45 113.563 371.343L114.921 372.927C113.731 373.945 112.297 375.456 111.441 376.728L109.74 375.576Z" fill="black"/>
<path d="M109.74 375.576L111.441 376.728" stroke="black" stroke-linejoin="round"/>
<path d="M113.563 371.343C127.388 360.889 131.916 393.008 113.82 385.153L114.792 383.206C130.003 391.97 125.776 362.214 114.921 372.927L113.563 371.343Z" fill="black"/>
<path d="M113.563 371.343L114.921 372.927" stroke="black" stroke-linejoin="round"/>
<path d="M115.294 383.724C116.264 386.357 121.816 387.005 121.657 393.519L119.353 393.359C119.992 388.422 115.237 388.275 113.318 384.634L115.294 383.724Z" fill="black"/>
<path d="M121.657 393.519C120.545 402.696 106.04 403.1 105.493 392.447L107.734 392.432C107.321 401.262 119.31 400.744 119.353 393.359L121.657 393.519Z" fill="black"/>
<path d="M107.846 392.064C112.226 407.659 87.717 405.532 94.707 391.132L96.74 392.26C89.315 403.844 110.971 405.791 105.714 392.783L107.846 392.064Z" fill="black"/>
<path d="M94.707 391.132C95.703 389.349 96.9 388.022 98.356 386.668L99.907 388.339C98.523 389.623 97.614 390.672 96.74 392.26L94.707 391.132Z" fill="black"/>
<path d="M94.707 391.132L96.74 392.26" stroke="black" stroke-linejoin="round"/>
<path d="M100.15 388.274C92.641 397.145 82.284 388.32 82.752 378.986L85.077 379.144C84.356 387.254 92.61 394.862 98.355 386.864L100.15 388.274Z" fill="black"/>
<path d="M100.15 388.274L98.355 386.864" stroke="black" stroke-linejoin="round"/>
<path d="M82.752 378.986C82.926 377.166 87.024 370.423 89.189 374.289L88.853 374.457C87.226 370.739 85.105 377.991 85.077 379.144L82.752 378.986Z" fill="black"/>
<path d="M176.122 416.573C156.733 415.895 172.349 447.996 181.177 427.928L183.171 428.927C171.381 450.005 155.192 415.697 176.122 415.019V416.573Z" fill="black"/>
<path d="M182.825 429.333C176.007 433.292 190.362 452.479 195.894 437.225L198.026 438.136C189.942 454.759 173.881 433.965 181.523 427.523L182.825 429.333Z" fill="black"/>
<path d="M195.894 437.225C196.728 435.319 196.794 433.295 196.802 431.059L199.132 431.068C199.123 433.351 198.988 435.837 198.026 438.136L195.894 437.225Z" fill="black"/>
<path d="M195.894 437.225L198.026 438.136" stroke="black" stroke-linejoin="round"/>
<path d="M196.802 431.059C196.819 428.533 196.378 426.396 194.819 424.545L196.625 423.063C198.476 425.369 199.137 428.291 199.132 431.068L196.802 431.059Z" fill="black"/>
<path d="M196.802 431.059L199.132 431.068" stroke="black" stroke-linejoin="round"/>
<path d="M196.859 424.071C196.456 425.421 197.492 427.736 198.081 429.464L195.841 430.225C195.289 428.597 194.147 425.775 194.585 423.537L196.859 424.071Z" fill="black"/>
<path d="M198.081 429.464C203.361 448.944 218.744 420.123 203.99 419.291L204.293 416.924C221.13 420.147 204.282 451.123 195.841 430.225L198.081 429.464Z" fill="black"/>
<path d="M198.081 429.464L195.841 430.225" stroke="black" stroke-linejoin="round"/>
<path d="M203.152 417.44C206.552 412.549 207.231 401.681 197.635 403.883L197.231 401.612C208.844 400.033 208.88 413.074 205.13 418.775L203.152 417.44Z" fill="black"/>
<path d="M203.152 417.44L205.13 418.775" stroke="black" stroke-linejoin="round"/>
<path d="M197.635 403.883C193.796 404.385 192.434 408.76 190.66 412.315L188.57 411.27C190.274 407.87 192.238 402.684 197.231 401.612L197.635 403.883Z" fill="black"/>
<path d="M197.635 403.883L197.231 401.612" stroke="black" stroke-linejoin="round"/>
<path d="M189.218 412.891C187.587 411.591 188.033 407.467 187.86 406.808L190.154 406.338C190.372 407.59 189.912 411.366 190.012 410.694L189.218 412.891Z" fill="black"/>
<path d="M187.86 406.808C187.3 403.578 183.875 400.989 180.671 401.361L180.475 399.025C184.654 398.777 189.21 402.224 190.154 406.338L187.86 406.808Z" fill="black"/>
<path d="M187.86 406.808L190.154 406.338" stroke="black" stroke-linejoin="round"/>
<path d="M180.671 401.361C175.134 401.548 169.608 411.357 174.275 415.941L173.998 416.219C169.215 411.352 173.476 399.89 180.475 399.025L180.671 401.361Z" fill="black"/>
<path d="M180.671 401.361L180.475 399.025" stroke="black" stroke-linejoin="round"/>
<path d="M113.304 416.647C113.382 407.699 123.287 396.85 129.674 391.991L130.896 393.599C124.665 398.325 114.595 408.334 114.673 416.647H113.304Z" fill="black"/>
<path d="M129.674 391.991C131.041 390.954 137.252 386.778 140 388L138.056 389.507C137.229 388.432 132.311 392.523 130.896 393.599L129.674 391.991Z" fill="black"/>
<path d="M129.674 391.991L130.896 393.599" stroke="black" stroke-linejoin="round"/>
<path d="M140 388C131.205 397.612 122.896 406.297 126.046 420.589L125.763 420.651C122.611 406.247 129.05 397.594 137.856 387.97L140 388Z" fill="black"/>
<path d="M126.412 420.694C130.666 408.018 139.469 401.318 150.943 396.252L152 398C140.699 402.981 131.752 408.772 127.666 421.112L126.412 420.694Z" fill="black"/>
<path d="M152 398C148.154 402.385 140.521 414.344 140.51 420.17L138.54 420.164C138.57 414.075 146.357 401.335 150.5 396.5L152 398Z" fill="black"/>
<path d="M140.51 420.17C140.505 421.605 139.498 424.967 140.475 425.909L140.274 426.11C139.22 425.021 138.536 421.537 138.54 420.164L140.51 420.17Z" fill="black"/>
<path d="M140.51 420.17L138.54 420.164" stroke="black" stroke-linejoin="round"/>
<path d="M143.626 425.746C143.359 419.866 144.91 413.588 148.395 408.698L150.042 409.877C146.713 414.508 144.224 419.996 144.499 425.706L143.626 425.746Z" fill="black"/>
<path d="M148.395 408.698C151.993 403.691 157.518 400.452 163.018 398.87L163.125 399.245C157.697 400.799 153.447 405.099 150.042 409.877L148.395 408.698Z" fill="black"/>
<path d="M148.395 408.698L150.042 409.877" stroke="black" stroke-linejoin="round"/>
<path d="M57.871 377.184C56.154 376.337 54.392 371.967 53.828 370.628L55.602 369.884C56.215 371.353 57.177 375.763 58.32 376.102L57.871 377.184Z" fill="black"/>
<path d="M53.828 370.628C50.751 363.277 49.83 355.165 51.108 347.391L51.465 347.449C50.192 355.156 52.588 362.705 55.602 369.884L53.828 370.628Z" fill="black"/>
<path d="M53.828 370.628L55.602 369.884" stroke="black" stroke-linejoin="round"/>
<path d="M48.768 373.453C43.786 370.935 39.731 365.707 37.564 359.679L39.471 358.997C41.538 364.794 44.539 370.115 49.266 372.457L48.768 373.453Z" fill="black"/>
<path d="M37.564 359.679C35.425 353.683 35.544 346.942 36.36 342L36.706 342.058C35.894 346.946 37.4 353.237 39.471 358.997L37.564 359.679Z" fill="black"/>
<path d="M37.564 359.679L39.471 358.997" stroke="black" stroke-linejoin="round"/>
<path d="M44.512 372.602C32.494 366.573 26.807 355.965 21.5 344L22.883 344.512C28.138 356.368 33.225 365.733 45.01 371.606L44.512 372.602Z" fill="black"/>
<path d="M22.872 345.375C22.167 346.436 24.01 351.149 24.486 353.01L22.371 353.547C21.946 351.855 20.62 346.273 21.5 344L22.872 345.375Z" fill="black"/>
<path d="M24.486 353.01C26.67 361.642 29.031 368.976 35.484 375.422L35.312 375.594C28.834 369.119 24.61 362.361 22.371 353.547L24.486 353.01Z" fill="black"/>
<path d="M24.486 353.01L22.371 353.547" stroke="black" stroke-linejoin="round"/>
<path fill-rule="evenodd" clip-rule="evenodd" d="M217.964 238.605C217.952 238.726 214.335 242.553 212.738 244.023C206.694 249.586 200.95 255.452 195.04 261.147C182.166 273.553 169.696 286.524 157.603 299.731C147.724 310.52 137.026 321.017 126.992 331.719C127.697 331.904 132.319 327.47 132.88 326.942C138.899 321.281 145.412 316.055 151.738 310.612C169.601 295.24 183.464 279.371 200.752 265.32C206.062 261.004 215.08 252.45 215.457 251.328C216.833 247.23 218.049 237.717 217.964 238.605Z" fill="black"/>
<path d="M218.503 238.656C218.351 239.093 215.004 243.211 213.373 244.713L212.102 243.333C213.666 241.895 217.553 238.359 217.424 238.553L218.503 238.656Z" fill="black"/>
<path d="M213.373 244.713C207.347 250.259 201.639 256.147 195.719 261.852L194.361 260.443C200.261 254.758 206.041 248.912 212.102 243.333L213.373 244.713Z" fill="black"/>
<path d="M213.373 244.713L212.102 243.333" stroke="black" stroke-linejoin="round"/>
<path d="M195.719 261.852C182.858 274.244 170.427 287.209 158.342 300.408L156.864 299.054C168.966 285.838 181.474 272.862 194.361 260.443L195.719 261.852Z" fill="black"/>
<path d="M195.719 261.852L194.361 260.443" stroke="black" stroke-linejoin="round"/>
<path d="M158.342 300.408C148.445 311.216 137.744 321.719 127.725 332.406L126.258 331.032C136.307 320.314 147.004 309.823 156.864 299.054L158.342 300.408Z" fill="black"/>
<path d="M158.342 300.408L156.864 299.054" stroke="black" stroke-linejoin="round"/>
<path d="M127.246 330.747C127.07 331.118 131.628 326.748 132.196 326.214L133.564 327.67C133.01 328.191 128.323 332.689 126.737 332.691L127.246 330.747Z" fill="black"/>
<path d="M127.246 330.747L126.737 332.691" stroke="black" stroke-linejoin="round"/>
<path d="M132.196 326.214C138.244 320.527 144.765 315.277 151.077 309.845L152.398 311.38C146.059 316.834 139.555 322.035 133.564 327.67L132.196 326.214Z" fill="black"/>
<path d="M132.196 326.214L133.564 327.67" stroke="black" stroke-linejoin="round"/>
<path d="M151.077 309.845C168.891 294.519 182.761 278.639 200.111 264.532L201.392 266.108C184.167 280.103 170.312 295.962 152.398 311.38L151.077 309.845Z" fill="black"/>
<path d="M151.077 309.845L152.398 311.38" stroke="black" stroke-linejoin="round"/>
<path d="M200.111 264.532C205.383 260.249 214.934 252.309 215.264 251.263L215.649 251.393C215.226 252.592 206.74 261.76 201.392 266.108L200.111 264.532Z" fill="black"/>
<path d="M200.111 264.532L201.392 266.108" stroke="black" stroke-linejoin="round"/>
<path d="M215.264 251.263C216.633 247.192 217.511 237.646 218.503 238.657L217.424 238.553C218.586 237.787 217.032 247.268 215.649 251.393L215.264 251.263Z" fill="black"/>
<path d="M215.264 251.263L215.649 251.393" stroke="black" stroke-linejoin="round"/>
<path fill-rule="evenodd" clip-rule="evenodd" d="M218.927 237.255C218.927 237.255 218.124 241.185 217.685 242.875C216.612 247.003 214.493 256.34 214.493 256.34C214.494 256.338 218.927 237.257 218.927 237.255Z" fill="black"/>
<path d="M219.903 237.44C219.9 237.455 219.302 241.446 218.853 243.178L216.517 242.571C216.945 240.925 217.954 237.057 217.952 237.071L219.903 237.44Z" fill="#B93A25"/>
<path d="M218.853 243.178C217.786 247.281 214.653 256.375 214.652 256.38L214.334 256.301C214.334 256.303 215.438 246.725 216.517 242.571L218.853 243.178Z" fill="#B93A25"/>
<path d="M218.853 243.178L216.517 242.571" stroke="#B93A25" stroke-linejoin="round"/>
<path fill-rule="evenodd" clip-rule="evenodd" d="M210.77 378.87C210.773 378.876 210.045 404.868 237.229 436.917C250.557 452.631 273.133 467.362 299.747 465.356C341.342 462.221 381.992 443.869 405.396 407.592C422.289 381.407 428.468 352.978 424.168 322.237C419.655 289.983 399.556 259.757 410.917 226.212C417.565 206.581 435.598 182.754 456.853 178.139C464.201 176.544 473.629 178.844 480.403 176.645C480.752 176.532 473.08 163.929 472.006 162.686C455.414 143.479 418.721 144.889 396.693 150.607C382.72 154.233 366.949 157.372 354.629 165.213C330.649 180.473 309.057 204.299 301.117 232.428C291.396 266.871 289.203 304.789 276.345 338.392C269.268 356.889 245.816 406.172 220.768 380.037C218.376 377.54 217.579 373.784 216.03 370.687L214.277 371.272V370.687L210.77 378.87Z" fill="#F5F5F5"/>
<path d="M220.31 372.119C220.117 386.313 235.28 389.209 246.262 383.033L247.372 385.041C235.513 391.492 218.928 387.348 218.733 372.12L220.31 372.119Z" fill="#B93A25"/>
<path d="M246.262 383.033C258.862 376.152 266.51 359.22 272.067 346.241L274.28 347.188C268.709 360.2 260.607 377.643 247.372 385.041L246.262 383.033Z" fill="#B93A25"/>
<path d="M246.262 383.033L247.372 385.041" stroke="#B93A25" stroke-linejoin="round"/>
<path d="M272.067 346.241C291.977 299.85 285.072 248.596 316.873 198.38L318.917 199.678C287.425 249.172 294.363 300.169 274.28 347.188L272.067 346.241Z" fill="#B93A25"/>
<path d="M272.067 346.241L274.28 347.188" stroke="#B93A25" stroke-linejoin="round"/>
<path d="M316.873 198.38C325.165 185.353 339.444 173.945 351.141 166.247L352.472 168.271C340.877 175.897 326.944 186.997 318.917 199.678L316.873 198.38Z" fill="#B93A25"/>
<path d="M316.873 198.38L318.917 199.678" stroke="#B93A25" stroke-linejoin="round"/>
<path d="M351.141 166.247C360.366 160.182 373.685 153.969 384.829 151.24L385.404 153.593C374.516 156.244 361.526 162.309 352.472 168.271L351.141 166.247Z" fill="#B93A25"/>
<path d="M351.141 166.247L352.472 168.271" stroke="#B93A25" stroke-linejoin="round"/>
<path d="M384.829 151.24C413.597 144.22 451.637 139.879 475.807 162.674L474.05 164.522C450.91 142.323 414.005 146.607 385.404 153.593L384.829 151.24Z" fill="#B93A25"/>
<path d="M384.829 151.24L385.404 153.593" stroke="#B93A25" stroke-linejoin="round"/>
<path d="M475.807 162.674C478.461 165.274 481.804 173.135 482.777 176.807L480.288 177.462C479.392 174.033 476.244 166.532 474.05 164.522L475.807 162.674Z" fill="#B93A25"/>
<path d="M475.807 162.674L474.05 164.522" stroke="#B93A25" stroke-linejoin="round"/>
<path d="M482.776 176.807C481.592 178.578 473.838 178.537 472.991 178.549L472.953 175.97C473.848 175.958 481.555 176.005 480.288 177.462L482.776 176.807Z" fill="#B93A25"/>
<path d="M482.776 176.807L480.288 177.462" stroke="#B93A25" stroke-linejoin="round"/>
<path d="M472.991 178.549C464.705 178.667 455.86 179.896 448.545 183.956L447.256 181.616C455.038 177.354 464.505 176.095 472.953 175.97L472.991 178.549Z" fill="#B93A25"/>
<path d="M472.991 178.549L472.953 175.97" stroke="#B93A25" stroke-linejoin="round"/>
<path d="M448.545 183.956C428.219 195.087 416.116 218.302 410.774 241.34L408.06 240.709C413.511 217.31 426.277 193.253 447.256 181.616L448.545 183.956Z" fill="#B93A25"/>
<path d="M448.545 183.956L447.256 181.616" stroke="#B93A25" stroke-linejoin="round"/>
<path d="M410.774 241.34C405.041 265.666 415.969 289.59 421.848 313.224L419.12 313.902C413.319 290.525 402.27 265.962 408.06 240.709L410.774 241.34Z" fill="#B93A25"/>
<path d="M410.774 241.34L408.06 240.709" stroke="#B93A25" stroke-linejoin="round"/>
<path d="M421.848 313.224C429.583 344.459 426.567 380.909 407.796 408.387L404.072 405.831C422.312 379.396 426.777 344.626 419.12 313.902L421.848 313.224Z" fill="#B93A25"/>
<path d="M421.848 313.224L419.12 313.902" stroke="#B93A25" stroke-linejoin="round"/>
<path d="M407.796 408.387C363.703 472.278 267.238 494.216 223.104 421.075L225.529 419.624C268.2 491.559 361.322 468.441 404.072 405.831L407.796 408.387Z" fill="#B93A25"/>
<path d="M407.796 408.387L404.072 405.831" stroke="#B93A25" stroke-linejoin="round"/>
<path d="M223.104 421.075C216.073 409.321 210.453 394.908 210.446 380.966H210.904C210.897 394.801 218.565 407.988 225.529 419.624L223.104 421.075Z" fill="#B93A25"/>
<path d="M223.104 421.075L225.529 419.624" stroke="#B93A25" stroke-linejoin="round"/>
<path d="M354.044 167.282C341.354 179.949 338.971 200.051 334.073 216.571L331.932 215.936C336.791 199.567 340.828 179.693 353.63 166.869L354.044 167.282Z" fill="#B93A25"/>
<path d="M332.231 215.447C334.618 213.263 343.599 193.145 357.66 186.872L358.056 187.767C344.348 193.775 336.63 214.232 333.774 217.061L332.231 215.447Z" fill="#B93A25"/>
<path d="M332.231 215.447L333.774 217.061" stroke="#B93A25" stroke-linejoin="round"/>
<path d="M358.273 187.579C347.987 203.957 339.414 224.746 345.062 244.026L343.096 244.595C337.376 224.571 347.119 203.505 357.444 187.059L358.273 187.579Z" fill="#B93A25"/>
<path d="M358.273 187.579L357.444 187.059" stroke="#B93A25" stroke-linejoin="round"/>
<path d="M343.789 243.33C343.917 243.628 355.151 221.216 368.459 217.21L368.758 218.223C355.935 221.923 345.744 244.549 344.369 245.292L343.789 243.33Z" fill="#B93A25"/>
<path d="M343.789 243.33L344.369 245.292" stroke="#B93A25" stroke-linejoin="round"/>
<path d="M368.459 217.21C372.014 216.162 376.543 215.147 377.561 216.843L376.56 217.254C376.461 216.227 372.277 217.185 368.758 218.223L368.459 217.21Z" fill="#B93A25"/>
<path d="M368.459 217.21L368.758 218.223" stroke="#B93A25" stroke-linejoin="round"/>
<path d="M377.36 217.499C369.391 222.749 368.186 231.05 366.254 240.526L364.156 240.098C366.09 230.611 368.512 222.116 376.761 216.597L377.36 217.499Z" fill="#B93A25"/>
<path d="M377.36 217.499L376.761 216.597" stroke="#B93A25" stroke-linejoin="round"/>
<path d="M365.268 239.243C365.172 239.744 374.071 226.833 384.639 224.643L384.856 225.719C374.762 227.685 366.922 240.979 365.142 241.381L365.268 239.243Z" fill="#B93A25"/>
<path d="M365.268 239.243L365.142 241.381" stroke="#B93A25" stroke-linejoin="round"/>
<path d="M385.247 224.954C385.984 227.086 379.69 236.018 379.053 238.13L377.974 237.795C378.733 235.418 385.013 226.576 384.248 225.408L385.247 224.954Z" fill="#B93A25"/>
<path d="M385.247 224.954L384.248 225.408" stroke="#B93A25" stroke-linejoin="round"/>
<path d="M379.053 238.13C376.177 247.353 376.465 259.668 380.462 268.512L378.49 269.396C374.336 260.047 375.059 247.194 377.974 237.795L379.053 238.13Z" fill="#B93A25"/>
<path d="M379.053 238.13L377.974 237.795" stroke="#B93A25" stroke-linejoin="round"/>
<path d="M378.434 268.667C382.841 253.22 399.736 249.783 409.283 240.236C399.736 249.783 384.327 254.791 380.518 269.24L378.434 268.667Z" fill="#B93A25"/>
<path d="M378.434 268.667L380.518 269.24" stroke="#B93A25" stroke-linejoin="round"/>
<path fill-rule="evenodd" clip-rule="evenodd" d="M140.52 137.446C162.516 137.446 171.444 113.881 182.737 98.136C197.495 77.561 217.449 66.739 242.884 65.503C273.651 64.008 288.936 83.649 309.33 102.643C317.859 110.586 323.803 121.749 334.304 127.661C340.6 131.206 346.333 129.973 352.72 131.527C352.453 133.116 347.918 134.977 346.567 135.709C341.404 138.506 337.671 142.444 333.923 146.864C313.57 170.871 292.368 195.375 258.104 189.951L257.943 190.276C260.774 192.148 264.237 196.565 265.694 199.596C262.69 200.89 258.221 193.684 253.098 198.242C251.447 199.712 249.648 203.676 249.449 205.877C249.389 206.549 250.63 210.616 249.112 210.097C244.731 208.598 245.344 200.257 242.681 199.28C239.212 198.007 234.17 197.745 230.054 196.356C223.732 194.221 219.335 186.979 212.534 184.89C202.354 181.765 188.942 183.999 178.236 182.013C162.956 179.178 141.74 157.111 141.74 140.802C141.74 139.612 139.33 137.446 140.52 137.446Z" fill="#F5F5F5"/>
<path d="M354.615 132.182C338.451 137.503 335.299 149.459 323.719 161.089L322.045 159.417C333.309 148.18 337.364 136.253 354.091 130.611L354.615 132.182Z" fill="#B93A25"/>
<path d="M323.719 161.089C312.775 172.044 303.222 181.624 288.309 187.612L287.372 185.27C301.874 179.492 311.104 170.37 322.045 159.417L323.719 161.089Z" fill="#B93A25"/>
<path d="M323.719 161.089L322.045 159.417" stroke="#B93A25" stroke-linejoin="round"/>
<path d="M288.309 187.612C279.888 190.979 263.745 195.02 256.595 187.812L256.869 187.542C263.78 194.637 279.058 188.597 287.372 185.27L288.309 187.612Z" fill="#B93A25"/>
<path d="M288.309 187.612L287.372 185.27" stroke="#B93A25" stroke-linejoin="round"/>
<path d="M139.929 137.686C147.548 153.271 169.33 150.335 184.118 157.153L183.05 159.446C169.026 152.845 146.973 154.536 138.686 138.308L139.929 137.686Z" fill="#B93A25"/>
<path d="M184.118 157.153C198.24 163.806 207.065 179.17 218.867 188.004L217.315 190.068C205.1 180.845 196.484 165.626 183.05 159.446L184.118 157.153Z" fill="#B93A25"/>
<path d="M184.118 157.153L183.05 159.446" stroke="#B93A25" stroke-linejoin="round"/>
<path d="M218.867 188.004C224.303 192.092 235.649 202.946 242.759 199.336L242.911 199.64C235.542 203.269 222.685 194.105 217.315 190.068L218.867 188.004Z" fill="#B93A25"/>
<path d="M218.867 188.004L217.315 190.068" stroke="#B93A25" stroke-linejoin="round"/>
<path d="M243.78 192.491C240.305 199.274 244.371 213.573 252.316 213.258C242.595 212.831 238.968 199.295 242.585 191.894L243.78 192.491Z" fill="#B93A25"/>
<path d="M251.838 212.949C245.755 209.72 248.877 200.693 252.35 197.274L254.091 199.084C251.074 201.908 249.46 212.031 254.091 213.5L251.838 212.949Z" fill="#B93A25"/>
<path d="M252.35 197.274C257.64 192.577 264.351 196.38 267.396 200.803L265.315 202.214C262.677 198.256 257.849 195.079 254.091 199.084L252.35 197.274Z" fill="#B93A25"/>
<path d="M252.35 197.274L254.091 199.084" stroke="#B93A25" stroke-linejoin="round"/>
<path d="M267.396 200.803C268.55 202.617 267.76 205.762 267.696 207.486L267.306 207.471C267.369 205.776 266.131 203.303 265.315 202.214L267.396 200.803Z" fill="#B93A25"/>
<path d="M267.396 200.803L265.315 202.214" stroke="#B93A25" stroke-linejoin="round"/>
<path fill-rule="evenodd" clip-rule="evenodd" d="M183.405 112.287C184.938 112.588 186.519 115.84 185.149 122.832C183.778 129.824 181.087 132.238 179.554 131.938C178.021 131.637 176.44 128.385 177.81 121.394C179.18 114.401 181.872 111.987 183.405 112.287Z" fill="black" stroke="black" stroke-width="2" stroke-linecap="round" stroke-linejoin="round"/>
<path d="M175 111.916C176.083 114.129 179.4 113.439 181.5 111.916L181.052 114.143C178.167 115.967 175.755 114.404 174.489 111.916L175 111.916Z" fill="black"/>
<path d="M177.382 105.981C174.88 107.296 172.577 105.863 171.513 103.836L173.313 102.909C174.173 104.617 174.923 105.829 176.65 104.71L177.382 105.981Z" fill="black"/>
<path d="M171.513 103.836C170.477 101.799 170.838 99.104 170.837 97.867H171.132C171.131 99.068 172.398 101.159 173.313 102.909L171.513 103.836Z" fill="black"/>
<path d="M171.513 103.836L173.313 102.909" stroke="black" stroke-linejoin="round"/>
<path d="M139.073 138.643C138.758 145.568 145.855 153.953 148.011 157.102L146.416 158.193C144.313 155.117 137.752 145.982 137.985 138.601L139.073 138.643Z" fill="black"/>
<path d="M148.011 157.102C155.813 168.525 169.954 180.558 183.973 182.539L183.696 184.449C169.094 182.286 154.403 169.848 146.416 158.193L148.011 157.102Z" fill="black"/>
<path d="M148.011 157.102L146.416 158.193" stroke="black" stroke-linejoin="round"/>
<path d="M183.973 182.539C192.259 183.75 205.49 183.266 213.06 187.044L212.967 187.229C205.466 183.471 192.271 185.68 183.696 184.449L183.973 182.539Z" fill="black"/>
<path d="M183.973 182.539L183.696 184.449" stroke="black" stroke-linejoin="round"/>
<path fill-rule="evenodd" clip-rule="evenodd" d="M265.952 66.564C267.281 62.573 270.217 58.752 272.577 55.309C277.401 48.271 282.138 38.574 289.337 33.559C297.142 45.483 301.899 63.407 303.19 77.477C303.512 80.995 306.034 90.033 304.024 93.126C300.394 91.46 295.932 84.925 292.654 82.136C285.03 75.647 276.723 70.437 267.236 67.277C266.771 67.122 265.797 67.028 265.952 66.564Z" fill="black"/>
<path d="M265.212 66.317C266.597 62.199 269.429 58.177 271.772 54.758L273.381 55.861C271.005 59.326 267.965 62.946 266.691 66.81L265.212 66.317Z" fill="black"/>
<path d="M271.772 54.758C276.554 47.787 281.415 37.988 288.805 32.795L289.869 34.322C282.86 39.161 278.248 48.755 273.381 55.861L271.772 54.758Z" fill="black"/>
<path d="M271.772 54.758L273.381 55.861" stroke="black" stroke-linejoin="round"/>
<path d="M290.115 33.049C298 45.122 302.856 63.227 304.16 77.388L302.22 77.566C300.943 63.588 296.284 45.844 288.558 34.068L290.115 33.049Z" fill="black"/>
<path d="M290.115 33.049L288.558 34.068" stroke="black" stroke-linejoin="round"/>
<path d="M304.16 77.388C304.462 80.78 306.995 89.993 304.831 93.65L303.218 92.601C305.073 90.074 302.563 81.21 302.22 77.566L304.16 77.388Z" fill="black"/>
<path d="M304.16 77.388L302.22 77.566" stroke="black" stroke-linejoin="round"/>
<path d="M303.623 94C299.709 92.135 295.19 85.54 292.03 82.869L293.279 81.402C296.673 84.309 301.078 90.784 304.426 92.251L303.623 94Z" fill="black"/>
<path d="M303.623 94L304.426 92.251" stroke="black" stroke-linejoin="round"/>
<path d="M292.03 82.869C284.46 76.423 276.64 70.613 267.175 67.461L267.297 67.093C276.805 70.262 285.6 74.87 293.279 81.402L292.03 82.869Z" fill="black"/>
<path d="M292.03 82.869L293.279 81.402" stroke="black" stroke-linejoin="round"/>
<path d="M267.175 67.461C266.739 67.313 265.358 67.673 265.212 66.317L266.691 66.81C266.236 66.384 266.804 66.931 267.297 67.093L267.175 67.461Z" fill="black"/>
<path d="M267.175 67.461L267.297 67.093" stroke="black" stroke-linejoin="round"/>
<path d="M139.012 137.373C159.144 137.508 165.394 120.69 175.332 105.495L176.979 106.572C167.145 121.589 160.079 138.996 139.012 139.131V137.373Z" fill="#B93A25"/>
<path d="M175.332 105.495C191.843 80.27 206.249 65.072 243.717 63.854L243.785 65.993C206.886 67.116 193.409 81.463 176.979 106.572L175.332 105.495Z" fill="#B93A25"/>
<path d="M175.332 105.495L176.979 106.572" stroke="#B93A25" stroke-linejoin="round"/>
<path d="M243.717 63.854C280.15 62.806 298.35 86.78 316.462 106.923L314.474 108.711C296.274 88.465 279.314 64.777 243.785 65.993L243.717 63.854Z" fill="#B93A25"/>
<path d="M243.717 63.854L243.785 65.993" stroke="#B93A25" stroke-linejoin="round"/>
<path d="M316.462 106.923C322.41 113.542 332.598 127.242 341.188 129.153L340.693 131.256C331.239 128.922 320.334 115.227 314.474 108.711L316.462 106.923Z" fill="#B93A25"/>
<path d="M316.462 106.923L314.474 108.711" stroke="#B93A25" stroke-linejoin="round"/>
<path d="M341.188 129.153C346.551 130.437 351.601 130.397 357.129 130.397V130.624C351.622 130.624 346.489 132.597 340.693 131.256L341.188 129.153Z" fill="#B93A25"/>
<path d="M341.188 129.153L340.693 131.256" stroke="#B93A25" stroke-linejoin="round"/>
<path fill-rule="evenodd" clip-rule="evenodd" d="M202.686 109.609C199.157 99.03 202.502 86.032 205.288 75.687C208.498 63.768 212.961 53.246 218.232 42.113C219.199 40.069 222.426 31.866 224.557 31.191C225.461 30.905 229.355 36.117 229.953 36.909C234.798 43.315 238.201 50.731 241.673 57.906C245.981 66.809 253.771 81.474 250.957 91.673C246.159 109.061 217.452 113.34 203.102 109.705C202.964 109.67 202.731 109.744 202.686 109.609Z" fill="black"/>
<path d="M202.055 109.819C198.492 99.035 201.544 85.78 204.332 75.429L206.244 75.944C203.459 86.283 199.822 99.025 203.317 109.398L202.055 109.819Z" fill="black"/>
<path d="M204.332 75.429C207.561 63.447 212.056 52.839 217.335 41.689L219.128 42.537C213.865 53.652 209.435 64.088 206.244 75.944L204.332 75.429Z" fill="black"/>
<path d="M204.332 75.429L206.244 75.944" stroke="black" stroke-linejoin="round"/>
<path d="M217.335 41.689C218.282 39.694 221.586 31.359 224.261 30.256L224.854 32.126C223.266 32.373 220.117 40.445 219.128 42.537L217.335 41.689Z" fill="black"/>
<path d="M217.335 41.689L219.128 42.537" stroke="black" stroke-linejoin="round"/>
<path d="M224.261 30.256C226.164 30.22 230.151 35.521 230.747 36.309L229.16 37.508C228.558 36.713 224.758 31.589 224.854 32.126L224.261 30.256Z" fill="black"/>
<path d="M224.261 30.256L224.854 32.126" stroke="black" stroke-linejoin="round"/>
<path d="M230.747 36.309C235.652 42.805 239.114 50.3 242.582 57.467L240.764 58.346C237.288 51.161 233.944 43.824 229.16 37.508L230.747 36.309Z" fill="black"/>
<path d="M230.747 36.309L229.16 37.508" stroke="black" stroke-linejoin="round"/>
<path d="M242.582 57.467C246.879 66.348 254.774 81.273 251.943 91.945L249.971 91.401C252.768 81.675 245.083 67.27 240.764 58.346L242.582 57.467Z" fill="black"/>
<path d="M242.582 57.467L240.764 58.346" stroke="black" stroke-linejoin="round"/>
<path d="M251.943 91.945C246.715 109.92 217.46 113.919 202.96 110.266L203.244 109.144C217.443 112.761 245.604 108.202 249.971 91.401L251.943 91.945Z" fill="black"/>
<path d="M251.943 91.945L249.971 91.401" stroke="black" stroke-linejoin="round"/>
<path d="M202.96 110.266C203.024 110.246 202.588 110.393 202.055 109.819L203.317 109.398C202.874 109.094 202.904 109.094 203.244 109.144L202.96 110.266Z" fill="black"/>
<path d="M202.96 110.266L203.244 109.144" stroke="black" stroke-linejoin="round"/>
<path fill-rule="evenodd" clip-rule="evenodd" d="M137.658 140.768C137.661 138.856 140.092 134.272 142.029 137.552C143.061 139.3 142.876 141.704 142.06 143.547C141.859 144.001 141.698 145.02 141.129 145.154C140.331 145.344 138.206 144.467 137.737 142.7C137.568 142.065 137.658 140.831 137.658 140.768Z" fill="black"/>
<path d="M137.062 140.767C137.104 138.647 139.82 133.363 142.846 137.07L141.212 138.035C140.363 135.181 138.219 139.065 138.254 140.769L137.062 140.767Z" fill="black"/>
<path d="M142.846 137.07C143.991 139.11 143.858 141.935 142.983 143.955L141.137 143.138C141.893 141.472 142.131 139.49 141.212 138.035L142.846 137.07Z" fill="black"/>
<path d="M142.846 137.07L141.212 138.035" stroke="black" stroke-linejoin="round"/>
<path d="M142.983 143.955C142.839 144.242 142.42 145.476 141.326 145.985L140.933 144.324C140.977 144.563 140.879 143.76 141.137 143.138L142.983 143.955Z" fill="black"/>
<path d="M142.983 143.955L141.137 143.138" stroke="black" stroke-linejoin="round"/>
<path d="M141.326 145.985C140.135 146.175 138.062 144.609 137.541 142.752L137.933 142.648C138.351 144.325 140.526 144.512 140.933 144.324L141.326 145.985Z" fill="black"/>
<path d="M141.326 145.985L140.933 144.324" stroke="black" stroke-linejoin="round"/>
<path d="M137.541 142.752C137.365 142.074 137.064 140.79 137.062 140.767L138.254 140.769C138.252 140.872 137.771 142.057 137.933 142.648L137.541 142.752Z" fill="black"/>
<path d="M137.541 142.752L137.933 142.648" stroke="black" stroke-linejoin="round"/>
<path fill-rule="evenodd" clip-rule="evenodd" d="M136.408 199.787C134.389 195.749 133.645 191.022 131.16 187.185C124.271 176.545 106.396 165.189 93.635 164.01C58.872 160.798 41.53 199.716 47.393 229.07C48.092 232.57 50.87 235.557 52.643 238.53C61.694 253.713 76.763 268.171 96.493 262.669C109.185 259.129 119.096 250.146 128.36 241.403C139.231 231.144 135.143 216.689 135.143 204.003C135.424 203.067 135.705 202.13 135.986 201.193C136.127 200.724 136.627 200.225 136.408 199.787Z" fill="#F5F5F5"/>
<path d="M157.605 185.856C151.24 190.099 141.657 197.672 137.883 204.068L135.894 202.882C140.006 196.048 150.235 188.702 156.65 184.424L157.605 185.856Z" fill="black"/>
<path d="M137.883 204.068C135.864 207.007 139.798 220.063 139.271 225.362L136.902 225.103C137.455 220.499 133.561 207.245 135.894 202.882L137.883 204.068Z" fill="black"/>
<path d="M137.883 204.068L135.894 202.882" stroke="black" stroke-linejoin="round"/>
<path d="M139.271 225.362C138.168 234.661 129.534 243.41 123.075 249.11L121.506 247.332C127.898 241.693 136.072 233.526 136.902 225.103L139.271 225.362Z" fill="black"/>
<path d="M139.271 225.362L136.902 225.103" stroke="black" stroke-linejoin="round"/>
<path d="M123.075 249.11C117.037 254.43 108.789 259.328 101.308 262.207L100.451 259.973C107.732 257.182 115.657 252.501 121.506 247.332L123.075 249.11Z" fill="black"/>
<path d="M123.075 249.11L121.506 247.332" stroke="black" stroke-linejoin="round"/>
<path d="M101.308 262.207C43.597 283.673 21.943 190.644 70.361 165.567L71.45 167.711C24.287 191.179 45.2 281.896 100.451 259.973L101.308 262.207Z" fill="black"/>
<path d="M101.308 262.207L100.451 259.973" stroke="black" stroke-linejoin="round"/>
<path d="M70.361 165.567C78.235 161.583 85.765 160.479 94.526 161.079L94.358 163.504C85.832 162.909 78.993 163.865 71.45 167.711L70.361 165.567Z" fill="black"/>
<path d="M70.361 165.567L71.45 167.711" stroke="black" stroke-linejoin="round"/>
<path d="M94.526 161.079C104.438 161.84 111.376 168.616 119.001 173.035L117.729 175.224C109.825 170.617 103.434 164.054 94.358 163.504L94.526 161.079Z" fill="black"/>
<path d="M94.526 161.079L94.358 163.504" stroke="black" stroke-linejoin="round"/>
<path d="M119.001 173.035C132.208 180.773 132.161 188.695 136.353 201.268L136.011 201.382C131.812 188.782 130.356 182.5 117.729 175.224L119.001 173.035Z" fill="black"/>
<path d="M119.001 173.035L117.729 175.224" stroke="black" stroke-linejoin="round"/>
<path d="M85.638 221.449C87.599 221.063 82.538 214.429 80.522 215.441L79.902 212.993C84.087 212.434 89.61 220.404 86.817 223.207L85.638 221.449Z" fill="black"/>
<path d="M80.522 215.441C76.085 215.873 77.948 227.345 82.058 226.688L82.077 229.181C75.794 228.601 73.63 215.277 79.902 212.993L80.522 215.441Z" fill="black"/>
<path d="M82.058 226.688C85.818 227.224 85.438 220.686 86.282 217.403L88.695 218.042C87.929 220.839 87.915 228.574 82.077 229.181L82.058 226.688Z" fill="black"/>
<path d="M86.282 217.403C88.377 209.506 89.385 201.186 92.646 193.338L94.95 194.299C91.798 201.822 90.829 209.975 88.695 218.042L86.282 217.403Z" fill="black"/>
<path d="M86.282 217.403L88.695 218.042" stroke="black" stroke-linejoin="round"/>
<path d="M92.646 193.338C94.22 189.576 98.112 183.068 97.735 179.57L100 178C100.276 182.354 96.441 190.716 94.95 194.299L92.646 193.338Z" fill="black"/>
<path d="M92.646 193.338L94.95 194.299" stroke="black" stroke-linejoin="round"/>
<path d="M99.067 180.537C91.895 182.225 84.276 182.736 80.5 173.5L82.069 174.156C85.056 182.429 92.769 179.702 100 178L99.067 180.537Z" fill="black"/>
<path d="M81.985 175.042C81.285 175.909 82 179 82 181L80 181.5C80.006 180.032 79.499 175.362 80.5 173.5L81.985 175.042Z" fill="black"/>
<path d="M82 180.5C81.996 187.923 82.946 195.611 82.946 202.976H82.641C82.642 195.637 80.003 188.095 80 180.5H82Z" fill="black"/>
<path d="M102.951 234.874C101.758 233.611 101.154 231.611 100.208 231.351L101.063 229.503C102.872 230.519 102.619 233.189 103.5 234L102.951 234.874Z" fill="black"/>
<path d="M100.208 231.351C91.009 226.102 90.041 249.123 96.181 244.882L97.133 246.94C87.881 249.815 89.273 225.037 101.063 229.503L100.208 231.351Z" fill="black"/>
<path d="M96.181 244.882C100.765 243.016 100.524 236.384 101.947 231.659L104.13 232.326C102.793 236.634 102.768 244.081 97.133 246.94L96.181 244.882Z" fill="black"/>
<path d="M101.947 231.659C105.367 220.48 106.667 207.371 111.41 196.438L113.65 197.413C109.035 207.973 107.607 220.923 104.13 232.326L101.947 231.659Z" fill="black"/>
<path d="M101.947 231.659L104.13 232.326" stroke="black" stroke-linejoin="round"/>
<path d="M114 197C115.253 202.667 111.5 208.5 114 212L111.5 214.5C107.509 208.44 112.778 200.808 111.482 196.5L114 197Z" fill="black"/>
<path d="M114 212C117.134 217.987 123.695 209.619 123.685 204.817H123.927C123.917 209.714 118.349 221.705 111.5 214.5L114 212Z" fill="black"/>
<path fill-rule="evenodd" clip-rule="evenodd" d="M78.605 196.941C81.902 198.867 82.684 202.227 81.388 204.446C80.091 206.666 76.78 207.635 73.483 205.709C70.186 203.784 69.404 200.424 70.701 198.204C71.997 195.985 75.308 195.016 78.605 196.941Z" fill="black"/>
<path d="M70.701 198.204C71.997 195.985 75.308 195.016 78.605 196.941C81.902 198.867 82.684 202.227 81.388 204.446C80.091 206.666 76.78 207.635 73.483 205.709C70.186 203.784 69.404 200.424 70.701 198.204Z" stroke="black" stroke-width="2" stroke-linecap="round" stroke-linejoin="round"/>
</svg>
