<svg width="277" height="274" viewBox="0 0 277 274" fill="none" xmlns="http://www.w3.org/2000/svg">
<path d="M227.444 166.275C213.675 172.221 214.569 171.684 214.829 172.286C217.661 178.842 234.019 188.678 243.78 187.539C254.506 186.286 260.876 177.756 258.471 171.335C255.517 163.446 237.802 161.802 227.444 166.275Z" fill="#6F7D5F"/>
<path d="M227.854 167.224C214.085 173.171 215.089 172.888 214.829 172.286C211.998 165.73 216.053 147.077 223.575 140.754C231.84 133.804 242.417 135.015 245.443 141.168C249.16 148.727 238.212 162.751 227.854 167.224Z" fill="#6F7D5F"/>
<path d="M184.92 180.257C168.202 184.499 169.315 184.052 169.501 184.783C171.52 192.743 188.302 206.895 199.592 207.38C212 207.914 220.788 199.39 219.228 191.66C217.312 182.164 197.497 177.067 184.92 180.257Z" fill="#6F7D5F"/>
<path d="M185.213 181.41C168.494 185.652 169.686 185.514 169.501 184.783C167.481 176.823 175.487 156.383 185.18 150.573C195.832 144.189 207.621 147.493 209.935 155.031C212.778 164.292 197.789 178.219 185.213 181.41Z" fill="#6F7D5F"/>
<path d="M135.166 181.441C114.553 180.221 115.986 180.115 115.932 181.016C115.351 190.83 129.369 213.059 142.075 217.705C156.038 222.812 169.155 216.271 170.177 206.887C171.433 195.357 150.672 182.359 135.166 181.441Z" fill="#6F7D5F"/>
<path d="M135.082 182.862C114.469 181.642 115.879 181.917 115.932 181.015C116.513 171.201 133.056 150.781 146.221 147.666C160.689 144.243 172.942 152.286 172.85 161.725C172.737 173.322 150.588 183.78 135.082 182.862Z" fill="#6F7D5F"/>
<path d="M231.457 164.021C151.424 201.934 84.142 175.234 66.1352 154.593" stroke="#6F7D5F" stroke-width="3" stroke-linecap="round"/>
<path d="M105.233 49.1501C99.877 63.1594 100.376 62.2428 99.7633 62.0086C93.0933 59.4585 82.5707 43.5324 83.2945 33.7326C84.0899 22.9627 92.3417 16.2365 98.8591 18.366C106.866 20.9823 109.262 38.6115 105.233 49.1501Z" fill="#6F7D5F"/>
<path d="M104.267 48.7808C98.9111 62.7902 99.151 61.7745 99.7635 62.0087C106.433 64.5588 124.897 59.7148 130.896 51.9317C137.488 43.3782 135.828 32.8625 129.552 30.1008C121.842 26.7079 108.296 38.2422 104.267 48.7808Z" fill="#6F7D5F"/>
<path d="M93.0696 92.2294C89.542 109.113 89.9413 107.981 89.2031 107.827C81.1646 106.148 66.3128 89.9824 65.3479 78.723C64.2875 66.3491 72.4309 57.2071 80.2196 58.4369C89.7886 59.9478 95.7232 79.5285 93.0696 92.2294Z" fill="#6F7D5F"/>
<path d="M91.9056 91.9862C88.378 108.87 88.4653 107.673 89.2034 107.827C97.242 109.507 117.324 100.64 122.716 90.7091C128.642 79.7949 124.84 68.1572 117.211 66.1656C107.837 63.7188 94.5592 79.2854 91.9056 91.9862Z" fill="#6F7D5F"/>
<path d="M94.0008 141.989C96.0956 162.532 96.1409 161.096 95.2428 161.187C85.4623 162.185 62.6577 149.124 57.4757 136.627C51.7808 122.893 57.7586 109.511 67.091 108.091C78.5565 106.346 92.4249 126.536 94.0008 141.989Z" fill="#6F7D5F"/>
<path d="M92.5844 142.134C94.6793 162.676 94.345 161.279 95.2432 161.187C105.024 160.19 124.722 142.795 127.275 129.509C130.081 114.908 121.525 103.008 112.098 103.501C100.516 104.107 91.0086 126.681 92.5844 142.134Z" fill="#6F7D5F"/>
<path d="M107.315 45.045C72.8353 126.617 102.37 192.703 123.757 209.817" stroke="#6F7D5F" stroke-width="3" stroke-linecap="round"/>
</svg>
