<svg width="209" height="206" viewBox="0 0 209 206" fill="none" xmlns="http://www.w3.org/2000/svg">
<g clip-path="url(#clip0_152_104)">
<path d="M174.444 151.275C160.675 157.221 161.569 156.684 161.829 157.286C164.661 163.842 181.019 173.678 190.78 172.539C201.506 171.287 207.876 162.756 205.471 156.335C202.517 148.447 184.802 146.802 174.444 151.275Z" fill="#6F7D5F"/>
<path d="M174.854 152.224C161.085 158.171 162.089 157.888 161.829 157.286C158.998 150.73 163.053 132.078 170.575 125.754C178.84 118.804 189.417 120.016 192.443 126.168C196.16 133.728 185.212 147.751 174.854 152.224Z" fill="#6F7D5F"/>
<path d="M131.92 165.258C115.202 169.499 116.315 169.052 116.501 169.783C118.52 177.743 135.302 191.895 146.592 192.38C159 192.914 167.788 184.39 166.228 176.66C164.312 167.164 144.497 162.067 131.92 165.258Z" fill="#6F7D5F"/>
<path d="M132.213 166.41C115.494 170.652 116.686 170.514 116.501 169.783C114.481 161.823 122.487 141.383 132.18 135.573C142.832 129.189 154.621 132.493 156.935 140.031C159.778 149.292 144.789 163.219 132.213 166.41Z" fill="#6F7D5F"/>
<path d="M82.1658 166.441C61.5528 165.221 62.9856 165.115 62.9323 166.016C62.3513 175.83 76.3692 198.059 89.075 202.706C103.038 207.812 116.155 201.271 117.177 191.887C118.433 180.357 97.6719 167.359 82.1658 166.441Z" fill="#6F7D5F"/>
<path d="M82.0816 167.862C61.4687 166.642 62.8789 166.917 62.9323 166.016C63.5133 156.202 80.0559 135.781 93.2211 132.667C107.689 129.243 119.942 137.286 119.85 146.725C119.737 158.322 97.5878 168.78 82.0816 167.862Z" fill="#6F7D5F"/>
<path d="M178.457 149.021C98.4236 186.935 31.1421 160.235 13.1352 139.593" stroke="#6F7D5F" stroke-width="3" stroke-linecap="round"/>
<path d="M52.2331 34.1502C46.877 48.1596 47.3758 47.2429 46.7633 47.0087C40.0933 44.4586 29.5707 28.5325 30.2945 18.7327C31.0899 7.96286 39.3417 1.2366 45.8592 3.36614C53.8664 5.98244 56.2623 23.6116 52.2331 34.1502Z" fill="#6F7D5F"/>
<path d="M51.2672 33.7809C45.9111 47.7903 46.151 46.7747 46.7635 47.0088C53.4335 49.5589 71.897 44.7149 77.8957 36.9318C84.488 28.3783 82.8283 17.8626 76.5525 15.101C68.8422 11.7081 55.2964 23.2423 51.2672 33.7809Z" fill="#6F7D5F"/>
<path d="M40.0697 77.2295C36.5421 94.1134 36.9413 92.9816 36.2032 92.8273C28.1646 91.1478 13.3128 74.9825 12.348 63.7231C11.2876 51.3492 19.431 42.2073 27.2197 43.437C36.7887 44.9479 42.7233 64.5286 40.0697 77.2295Z" fill="#6F7D5F"/>
<path d="M38.9056 76.9863C35.378 93.8702 35.4653 92.6732 36.2035 92.8275C44.242 94.507 64.3238 85.6404 69.7161 75.7092C75.6421 64.795 71.8402 53.1573 64.2107 51.1657C54.8372 48.7189 41.5592 64.2855 38.9056 76.9863Z" fill="#6F7D5F"/>
<path d="M41.0008 126.989C43.0956 147.532 43.1409 146.096 42.2428 146.188C32.4623 147.185 9.6577 134.124 4.47574 121.627C-1.21914 107.893 4.75863 94.5109 14.091 93.091C25.5565 91.3465 39.4249 111.536 41.0008 126.989Z" fill="#6F7D5F"/>
<path d="M39.5845 127.134C41.6793 147.676 41.345 146.279 42.2432 146.187C52.0236 145.19 71.7225 127.795 74.2753 114.509C77.0807 99.9086 68.5247 88.0083 59.0978 88.5014C47.5162 89.1071 38.0086 111.681 39.5845 127.134Z" fill="#6F7D5F"/>
<path d="M54.3148 30.0451C19.8353 111.617 49.3695 177.703 70.7574 194.817" stroke="#6F7D5F" stroke-width="3" stroke-linecap="round"/>
</g>
<defs>
<clipPath id="clip0_152_104">
<rect width="209" height="206" fill="white"/>
</clipPath>
</defs>
</svg>
